<?xml version="1.0" encoding="UTF-8" standalone="no"?>
<!-- Created with Inkscape (http://www.inkscape.org/) -->

<svg
   xmlns:dc="http://purl.org/dc/elements/1.1/"
   xmlns:cc="http://creativecommons.org/ns#"
   xmlns:rdf="http://www.w3.org/1999/02/22-rdf-syntax-ns#"
   xmlns:svg="http://www.w3.org/2000/svg"
   xmlns="http://www.w3.org/2000/svg"
   xmlns:xlink="http://www.w3.org/1999/xlink"
   xmlns:sodipodi="http://sodipodi.sourceforge.net/DTD/sodipodi-0.dtd"
   xmlns:inkscape="http://www.inkscape.org/namespaces/inkscape"
   width="97.954491"
   height="97.717125"
   id="svg3163"
   version="1.1"
   inkscape:version="0.48.4 r9939"
   sodipodi:docname="Nouveau document 3">
  <defs
     id="defs3165">
    <linearGradient
       gradientTransform="translate(161.13539,126.07116)"
       inkscape:collect="always"
       xlink:href="#linearGradient3994-8"
       id="linearGradient4000-4"
       x1="155.39651"
       y1="236.46448"
       x2="155.39651"
       y2="277.97324"
       gradientUnits="userSpaceOnUse" />
    <linearGradient
       inkscape:collect="always"
       id="linearGradient3994-8">
      <stop
         style="stop-color:#ffffff;stop-opacity:1;"
         offset="0"
         id="stop3996-7" />
      <stop
         style="stop-color:#ffffff;stop-opacity:0;"
         offset="1"
         id="stop3998-1" />
    </linearGradient>
    <linearGradient
       inkscape:collect="always"
       xlink:href="#linearGradient3994-8"
       id="linearGradient3196"
       gradientUnits="userSpaceOnUse"
       gradientTransform="translate(161.13539,126.07116)"
       x1="155.39651"
       y1="236.46448"
       x2="155.39651"
       y2="277.97324" />
  </defs>
  <sodipodi:namedview
     id="base"
     pagecolor="#ffffff"
     bordercolor="#666666"
     borderopacity="1.0"
     inkscape:pageopacity="0.0"
     inkscape:pageshadow="2"
     inkscape:zoom="2.8"
     inkscape:cx="131.77093"
     inkscape:cy="39.317771"
     inkscape:document-units="px"
     inkscape:current-layer="layer1"
     showgrid="false"
     fit-margin-top="0"
     fit-margin-left="0"
     fit-margin-right="0"
     fit-margin-bottom="0"
     inkscape:window-width="1855"
     inkscape:window-height="1056"
     inkscape:window-x="65"
     inkscape:window-y="24"
     inkscape:window-maximized="1" />
  <metadata
     id="metadata3168">
    <rdf:RDF>
      <cc:Work
         rdf:about="">
        <dc:format>image/svg+xml</dc:format>
        <dc:type
           rdf:resource="http://purl.org/dc/dcmitype/StillImage" />
        <dc:title></dc:title>
      </cc:Work>
    </rdf:RDF>
  </metadata>
  <g
     inkscape:label="Calque 1"
     inkscape:groupmode="layer"
     id="layer1"
     transform="translate(-271.02276,-369.2179)">
    <rect
       style="fill:#1a1a1a;fill-opacity:1;stroke:none"
       id="rect4027-7"
       width="97.717125"
       height="97.717125"
       x="271.12872"
       y="369.2179"
       rx="5.126524"
       ry="6.3639607"
       inkscape:export-filename="/home/evalentin/Bureau/512.png"
       inkscape:export-xdpi="470.64432"
       inkscape:export-ydpi="470.64432" />
    <path
       style="fill:#0b8e8e;fill-opacity:1"
       d="m 296.76948,448.39186 c -1.9484,-0.47938 -3.44285,-1.97191 -3.9977,-3.9926 -0.11326,-0.41247 -0.18393,-1.47505 -0.12446,-1.87156 l 0.0456,-0.30375 5.38094,0 5.38094,0 0.046,0.36775 c 0.10879,0.87077 -0.0876,1.93795 -0.52463,2.84999 -0.57743,1.2052 -1.47809,2.09461 -2.66695,2.63366 -0.99206,0.44983 -2.46308,0.58135 -3.53963,0.31651 z m 19.12032,0.0328 c -2.81464,-0.49414 -5.35219,-2.38548 -6.63708,-4.9469 -0.25426,-0.50689 -0.54247,-1.19858 -0.51113,-1.22673 0.0379,-0.0341 17.31407,-0.0901 17.40189,-0.0564 0.0849,0.0326 0.0626,0.13118 -0.14515,0.6417 -0.68347,1.67976 -1.91229,3.1645 -3.50833,4.23895 -0.75433,0.50784 -2.06004,1.05203 -3.09082,1.28822 -0.64088,0.14685 -2.80629,0.18458 -3.50938,0.0612 z m 23.77546,0.0533 c -1.36283,-0.17663 -2.82734,-0.72984 -4.01679,-1.5173 -0.65509,-0.43368 -1.69027,-1.4278 -2.22491,-2.13664 -0.45731,-0.60632 -1.25375,-2.12727 -1.27648,-2.43769 l -0.0142,-0.19481 8.63634,-0.0153 c 4.74998,-0.009 8.6723,0.008 8.71626,0.0356 0.0971,0.0618 -0.0461,0.46771 -0.4465,1.26604 -1.32135,2.63407 -3.83856,4.47316 -6.77433,4.94932 -0.53479,0.0867 -2.08817,0.11716 -2.59932,0.0509 z m -54.05825,-6.38314 0,-1.81887 -1.09672,0 -1.09671,0 -0.72487,1.10389 -0.72485,1.10389 -0.48361,0 -0.48361,0 0,-3.89609 0,-3.89609 0.47746,0 0.47747,0 0.74006,1.12013 0.74006,1.12012 1.07142,0 1.07144,0 0.0178,-1.12012 0.0178,-1.12013 36.06976,0 36.06977,0 0,3.27921 0,3.27921 -33.27776,0 -33.27775,0 -0.0176,1.31493 -0.0176,1.31494 -2.77596,0.0169 -2.77597,0.0169 0,-1.81887 z m 5.25274,-8.07561 c -0.45184,-0.18587 -0.67229,-0.34105 -1.01937,-0.71761 -1.41282,-1.53272 -2.40572,-5.16637 -2.68096,-9.8113 -0.0934,-1.57662 -0.0408,-4.76884 0.10211,-6.19296 0.49636,-4.94676 1.77844,-8.24934 3.51298,-9.04926 0.3046,-0.14047 0.41337,-0.14885 2.33248,-0.1798 l 2.01298,-0.0325 0.0152,-5.82799 0.0152,-5.828 -1.49248,-3.27704 c -0.82088,-1.80238 -1.4925,-3.30022 -1.4925,-3.32854 0,-0.0283 0.48977,-0.54061 1.08836,-1.13843 l 1.08836,-1.08694 3.50649,0 3.50651,0 1.09784,1.09927 1.09783,1.09927 -1.48816,3.30006 -1.48816,3.30007 0.0169,5.86037 0.0169,5.86037 5.71358,0 5.71358,0 0.002,-2.06168 c 0.003,-2.25496 0.0501,-2.72061 0.35686,-3.49169 0.61799,-1.55329 2.01431,-2.70123 3.62797,-2.98263 0.72018,-0.12559 0.98087,-0.1256 1.70069,-6e-5 1.81845,0.31711 3.2868,1.66554 3.81519,3.50361 0.11713,0.40745 0.13336,0.69173 0.15658,2.74352 l 0.0259,2.28894 2.65725,0 2.65724,0 0,-3.83116 0,-3.83115 13.66878,0 13.66878,0 0,16.88305 0,16.88307 -31.57456,-0.002 -31.57456,-0.002 -0.36413,-0.1498 z m 60.46131,-25.36653 0,-5.64933 -7.75728,0 c -7.57541,0 -7.76534,0.003 -8.10134,0.12873 -0.39312,0.14709 -0.7584,0.47379 -1.01192,0.90502 l -0.17485,0.29742 -0.0198,4.15583 c -0.014,2.94126 0.002,4.23174 0.0534,4.41557 0.0995,0.35321 0.41454,0.80839 0.70251,1.01507 0.54983,0.39461 0.095,0.37453 8.56583,0.37793 l 7.74348,0.003 z m -24.30603,-8.61346 c -0.0245,-0.0245 -0.0445,-1.03315 -0.0445,-2.24149 l 0,-2.19696 16.55838,0 16.55839,0 0,0.16508 c 0,0.41913 -0.21864,1.20715 -0.48569,1.7505 -0.58767,1.19575 -1.44758,1.92835 -2.79353,2.37995 l -0.45454,0.15251 -14.64698,0.0175 c -8.05584,0.01 -14.66702,-0.003 -14.69151,-0.0271 z"
       id="path4081"
       inkscape:connector-curvature="0"
       sodipodi:nodetypes="ssscccssssssccsssscssccscsscccccccccccccccccccccccccccccccccssssscccssscccccccccccssscsscccccccccccccccssscscsscccscccssscscc"
       inkscape:export-filename="/home/evalentin/Bureau/512.png"
       inkscape:export-xdpi="470.64432"
       inkscape:export-ydpi="470.64432" />
    <path
       style="opacity:0.15;fill:url(#linearGradient3196);fill-opacity:1;stroke:none"
       d="m 277.40673,369.25822 84.79741,0 c 2.23339,0 3.76135,3.6e-4 5.13333,1.76348 1.45334,1.86767 1.47619,2.82333 1.47207,4.28368 l -0.028,9.92339 c 2.6724,6.17901 -22.45033,14.83046 -49.31887,15.10182 -26.06733,0 -48.26358,-13.78858 -48.26358,-13.78858 0.20951,-4.63934 -1.19324,-12.44089 1.5468,-15.52344 2.34229,-2.17075 1.90736,-1.76032 4.66086,-1.76032 z"
       id="rect4027-5-4"
       inkscape:connector-curvature="0"
       sodipodi:nodetypes="csssccccsc"
       inkscape:export-filename="/home/evalentin/Bureau/512.png"
       inkscape:export-xdpi="470.64432"
       inkscape:export-ydpi="470.64432" />
  </g>
</svg>
